{
  "accessors": [
    {
      "bufferView": 2,
      "componentType": 5126,
      "count": 65531,
      "max": [
        -76.41910552978516,
        20.34340476989746,
        146.017822265625
      ],
      "min": [
        -123.57990264892578,
        -70.18274688720703,
        94.90115356445313
      ],
      "type": "VEC3"
    },
    {
      "bufferView": 2,
      "byteOffset": 786372,
      "componentType": 5126,
      "count": 65531,
      "max": [
        0.9999785423278809,
        0.9998473525047302,
        0.9999499917030334
      ],
      "min": [
        -0.999997615814209,
        -0.9995323419570923,
        -0.9999691247940063
      ],
      "type": "VEC3"
    },
    {
      "bufferView": 1,
      "componentType": 5126,
      "count": 65531,
      "max": [
        0.0,
        0.0
      ],
      "min": [
        0.0,
        0.0
      ],
      "type": "VEC2"
    },
    {
      "bufferView": 0,
      "componentType": 5125,
      "count": 391647,
      "type": "SCALAR"
    },
    {
      "bufferView": 2,
      "byteOffset": 1572744,
      "componentType": 5126,
      "count": 65531,
      "max": [
        -74.96600341796875,
        83.22065734863281,
        163.07351684570313
      ],
      "min": [
        -125.03299713134766,
        -59.77692794799805,
        -0.308118999004364
      ],
      "type": "VEC3"
    },
    {
      "bufferView": 2,
      "byteOffset": 2359116,
      "componentType": 5126,
      "count": 65531,
      "max": [
        0.999997615814209,
        1.0,
        0.9999691247940063
      ],
      "min": [
        -0.999997615814209,
        -0.9999141097068787,
        -0.999997615814209
      ],
      "type": "VEC3"
    },
    {
      "bufferView": 1,
      "byteOffset": 524248,
      "componentType": 5126,
      "count": 65531,
      "max": [
        0.0,
        0.0
      ],
      "min": [
        0.0,
        0.0
      ],
      "type": "VEC2"
    },
    {
      "bufferView": 0,
      "byteOffset": 1566588,
      "componentType": 5125,
      "count": 384573,
      "type": "SCALAR"
    },
    {
      "bufferView": 2,
      "byteOffset": 3145488,
      "componentType": 5126,
      "count": 65531,
      "max": [
        -75.82625579833984,
        103.54499816894531,
        206.29600524902344
      ],
      "min": [
        -121.5843734741211,
        -142.10887145996094,
        17.75642204284668
      ],
      "type": "VEC3"
    },
    {
      "bufferView": 2,
      "byteOffset": 3931860,
      "componentType": 5126,
      "count": 65531,
      "max": [
        0.999997615814209,
        0.9999618530273438,
        0.9999691247940063
      ],
      "min": [
        -0.999997615814209,
        -0.9999618530273438,
        -0.999997615814209
      ],
      "type": "VEC3"
    },
    {
      "bufferView": 1,
      "byteOffset": 1048496,
      "componentType": 5126,
      "count": 65531,
      "max": [
        0.0,
        0.0
      ],
      "min": [
        0.0,
        0.0
      ],
      "type": "VEC2"
    },
    {
      "bufferView": 0,
      "byteOffset": 3104880,
      "componentType": 5125,
      "count": 379356,
      "type": "SCALAR"
    },
    {
      "bufferView": 2,
      "byteOffset": 4718232,
      "componentType": 5126,
      "count": 36943,
      "max": [
        110.77405548095703,
        80.50675201416016,
        200.15638732910156
      ],
      "min": [
        -120.04570770263672,
        -122.53984069824219,
        -0.308118999004364
      ],
      "type": "VEC3"
    },
    {
      "bufferView": 2,
      "byteOffset": 5161548,
      "componentType": 5126,
      "count": 36943,
      "max": [
        0.999997615814209,
        0.9999905228614807,
        0.9999499917030334
      ],
      "min": [
        -0.999997615814209,
        -0.9999618530273438,
        -0.999997615814209
      ],
      "type": "VEC3"
    },
    {
      "bufferView": 1,
      "byteOffset": 1572744,
      "componentType": 5126,
      "count": 36943,
      "max": [
        0.0,
        0.0
      ],
      "min": [
        0.0,
        0.0
      ],
      "type": "VEC2"
    },
    {
      "bufferView": 0,
      "byteOffset": 4622304,
      "componentType": 5125,
      "count": 216528,
      "type": "SCALAR"
    },
    {
      "bufferView": 2,
      "byteOffset": 5604864,
      "componentType": 5126,
      "count": 13170,
      "max": [
        129.7821044921875,
        104.72699737548828,
        219.6971435546875
      ],
      "min": [
        70.21759796142578,
        -144.82778930664063,
        0.9227030277252197
      ],
      "type": "VEC3"
    },
    {
      "bufferView": 2,
      "byteOffset": 5762904,
      "componentType": 5126,
      "count": 13170,
      "max": [
        0.9999785423278809,
        0.9999618530273438,
        0.9999785423278809
      ],
      "min": [
        -0.9999785423278809,
        -0.9999141097068787,
        -0.999997615814209
      ],
      "type": "VEC3"
    },
    {
      "bufferView": 1,
      "byteOffset": 1868288,
      "componentType": 5126,
      "count": 13170,
      "max": [
        0.0,
        0.0
      ],
      "min": [
        0.0,
        0.0
      ],
      "type": "VEC2"
    },
    {
      "bufferView": 0,
      "byteOffset": 5488416,
      "componentType": 5125,
      "count": 79008,
      "type": "SCALAR"
    },
    {
      "bufferView": 2,
      "byteOffset": 5920944,
      "componentType": 5126,
      "count": 13170,
      "max": [
        32.07215881347656,
        104.85399627685547,
        219.69668579101563
      ],
      "min": [
        -32.06990051269531,
        -144.8272705078125,
        0.8688269853591919
      ],
      "type": "VEC3"
    },
    {
      "bufferView": 2,
      "byteOffset": 6078984,
      "componentType": 5126,
      "count": 13170,
      "max": [
        0.999911904335022,
        0.9999618530273438,
        0.9999785423278809
      ],
      "min": [
        -0.999911904335022,
        -0.9999141097068787,
        -0.999997615814209
      ],
      "type": "VEC3"
    },
    {
      "bufferView": 1,
      "byteOffset": 1973648,
      "componentType": 5126,
      "count": 13170,
      "max": [
        0.0,
        0.0
      ],
      "min": [
        0.0,
        0.0
      ],
      "type": "VEC2"
    },
    {
      "bufferView": 0,
      "byteOffset": 5804448,
      "componentType": 5125,
      "count": 79008,
      "type": "SCALAR"
    }
  ],
  "asset": {
    "extras": {
      "author": "CAPTAAINRO (https://sketchfab.com/CAPTAAINRO)",
      "license": "CC-BY-4.0 (http://creativecommons.org/licenses/by/4.0/)",
      "source": "https://sketchfab.com/3d-models/horses-3b4491832720439daf0ae0a6941ef7aa",
      "title": "Horses"
    },
    "generator": "Sketchfab-15.55.0",
    "version": "2.0"
  },
  "bufferViews": [
    {
      "buffer": 0,
      "byteLength": 6120480,
      "name": "floatBufferViews",
      "target": 34963
    },
    {
      "buffer": 0,
      "byteLength": 2079008,
      "byteOffset": 6120480,
      "byteStride": 8,
      "name": "floatBufferViews",
      "target": 34962
    },
    {
      "buffer": 0,
      "byteLength": 6237024,
      "byteOffset": 8199488,
      "byteStride": 12,
      "name": "floatBufferViews",
      "target": 34962
    }
  ],
  "buffers": [
    {
      "byteLength": 14436512,
      "uri": "scene.bin"
    }
  ],
  "images": [
    {
      "uri": "textures/object_0_baseColor.png"
    },
    {
      "uri": "textures/object_5_baseColor.png"
    }
  ],
  "materials": [
    {
      "doubleSided": true,
      "name": "object_0",
      "pbrMetallicRoughness": {
        "baseColorTexture": {
          "index": 0
        },
        "metallicFactor": 0.0
      }
    },
    {
      "doubleSided": true,
      "name": "object_1",
      "pbrMetallicRoughness": {
        "baseColorTexture": {
          "index": 0
        },
        "metallicFactor": 0.0
      }
    },
    {
      "doubleSided": true,
      "name": "object_2",
      "pbrMetallicRoughness": {
        "baseColorTexture": {
          "index": 0
        },
        "metallicFactor": 0.0
      }
    },
    {
      "doubleSided": true,
      "name": "object_3",
      "pbrMetallicRoughness": {
        "baseColorTexture": {
          "index": 0
        },
        "metallicFactor": 0.0
      }
    },
    {
      "doubleSided": true,
      "name": "object_4",
      "pbrMetallicRoughness": {
        "baseColorTexture": {
          "index": 0
        },
        "metallicFactor": 0.0
      }
    },
    {
      "doubleSided": true,
      "name": "object_5",
      "pbrMetallicRoughness": {
        "baseColorTexture": {
          "index": 1
        },
        "metallicFactor": 0.0
      }
    }
  ],
  "meshes": [
    {
      "name": "Object_0",
      "primitives": [
        {
          "attributes": {
            "NORMAL": 1,
            "POSITION": 0,
            "TEXCOORD_0": 2
          },
          "indices": 3,
          "material": 0,
          "mode": 4
        }
      ]
    },
    {
      "name": "Object_1",
      "primitives": [
        {
          "attributes": {
            "NORMAL": 5,
            "POSITION": 4,
            "TEXCOORD_0": 6
          },
          "indices": 7,
          "material": 1,
          "mode": 4
        }
      ]
    },
    {
      "name": "Object_2",
      "primitives": [
        {
          "attributes": {
            "NORMAL": 9,
            "POSITION": 8,
            "TEXCOORD_0": 10
          },
          "indices": 11,
          "material": 2,
          "mode": 4
        }
      ]
    },
    {
      "name": "Object_3",
      "primitives": [
        {
          "attributes": {
            "NORMAL": 13,
            "POSITION": 12,
            "TEXCOORD_0": 14
          },
          "indices": 15,
          "material": 3,
          "mode": 4
        }
      ]
    },
    {
      "name": "Object_4",
      "primitives": [
        {
          "attributes": {
            "NORMAL": 17,
            "POSITION": 16,
            "TEXCOORD_0": 18
          },
          "indices": 19,
          "material": 4,
          "mode": 4
        }
      ]
    },
    {
      "name": "Object_5",
      "primitives": [
        {
          "attributes": {
            "NORMAL": 21,
            "POSITION": 20,
            "TEXCOORD_0": 22
          },
          "indices": 23,
          "material": 5,
          "mode": 4
        }
      ]
    }
  ],
  "nodes": [
    {
      "children": [
        1
      ],
      "matrix": [
        1.0,
        0.0,
        0.0,
        0.0,
        0.0,
        2.220446049250313e-16,
        -1.0,
        0.0,
        0.0,
        1.0,
        2.220446049250313e-16,
        0.0,
        0.0,
        0.0,
        0.0,
        1.0
      ],
      "name": "Sketchfab_model"
    },
    {
      "children": [
        2,
        3,
        4,
        5,
        6,
        7
      ],
      "name": "model.obj.cleaner.materialmerger.gles"
    },
    {
      "mesh": 0,
      "name": "Object_2"
    },
    {
      "mesh": 1,
      "name": "Object_3"
    },
    {
      "mesh": 2,
      "name": "Object_4"
    },
    {
      "mesh": 3,
      "name": "Object_5"
    },
    {
      "mesh": 4,
      "name": "Object_6"
    },
    {
      "mesh": 5,
      "name": "Object_7"
    }
  ],
  "samplers": [
    {
      "magFilter": 9729,
      "minFilter": 9987,
      "wrapS": 10497,
      "wrapT": 10497
    }
  ],
  "scene": 0,
  "scenes": [
    {
      "name": "Sketchfab_Scene",
      "nodes": [
        0
      ]
    }
  ],
  "textures": [
    {
      "sampler": 0,
      "source": 0
    },
    {
      "sampler": 0,
      "source": 1
    }
  ]
}
